inDegrees=no
num_controls=7
num_derivatives=13
num_iterations=119
num_multipliers=7
num_parameters=0
num_slacks=7
num_states=26
objective=0.425708
objective_accelerations=0.058897
objective_balance=0.001364
objective_effort=0.014609
objective_height=0.344973
objective_ligament=0.005865
solver_duration=1691.620204
status=Solve_Succeeded
success=true
DataType=double
version=3
OpenSimVersion=4.5
endheader
time	/jointset/ground_pelvis/pelvis_tilt/value	/jointset/ground_pelvis/pelvis_tx/value	/jointset/ground_pelvis/pelvis_ty/value	/jointset/hip_l/hip_flexion_l/value	/jointset/hip_l/hip_adduction_l/value	/jointset/hip_l/hip_rotation_l/value	/jointset/back/lumbar_extension/value	/jointset/patellofemoral_l/patellar_flexion_l/value	/jointset/knee_l/knee_flexion_l/value	/jointset/knee_l/knee_adduction_l/value	/jointset/knee_l/knee_rotation_l/value	/jointset/ankle_l/ankle_angle_l/value	/jointset/subtalar_l/subtalar_angle_l/value	/jointset/ground_pelvis/pelvis_tilt/speed	/jointset/ground_pelvis/pelvis_tx/speed	/jointset/ground_pelvis/pelvis_ty/speed	/jointset/hip_l/hip_flexion_l/speed	/jointset/hip_l/hip_adduction_l/speed	/jointset/hip_l/hip_rotation_l/speed	/jointset/back/lumbar_extension/speed	/jointset/patellofemoral_l/patellar_flexion_l/speed	/jointset/knee_l/knee_flexion_l/speed	/jointset/knee_l/knee_adduction_l/speed	/jointset/knee_l/knee_rotation_l/speed	/jointset/ankle_l/ankle_angle_l/speed	/jointset/subtalar_l/subtalar_angle_l/speed	/forceset/tau_hip_flexion_l	/forceset/tau_hip_adduction_l	/forceset/tau_hip_rotation_l	/forceset/tau_knee_flexion_l	/forceset/tau_ankle_angle_l	/forceset/tau_subtalar_angle_l	/forceset/tau_lumbar_extension	lambda_cid13_p0	lambda_cid13_p1	lambda_cid13_p2	lambda_cid13_p3	lambda_cid13_p4	lambda_cid13_p5	lambda_cid14_p0	/jointset/ground_pelvis/pelvis_tilt/accel	/jointset/ground_pelvis/pelvis_tx/accel	/jointset/ground_pelvis/pelvis_ty/accel	/jointset/hip_l/hip_flexion_l/accel	/jointset/hip_l/hip_adduction_l/accel	/jointset/hip_l/hip_rotation_l/accel	/jointset/back/lumbar_extension/accel	/jointset/patellofemoral_l/patellar_flexion_l/accel	/jointset/knee_l/knee_flexion_l/accel	/jointset/knee_l/knee_adduction_l/accel	/jointset/knee_l/knee_rotation_l/accel	/jointset/ankle_l/ankle_angle_l/accel	/jointset/subtalar_l/subtalar_angle_l/accel	gamma_cid13_p0	gamma_cid13_p1	gamma_cid13_p2	gamma_cid13_p3	gamma_cid13_p4	gamma_cid13_p5	gamma_cid14_p0
0	0.04790297963326104	0.1081366334029126	0.9028596028781981	0.1266922784136757	-0.3701205177712627	-0.2256801112437504	-0.2144969558742783	0.2051545070141835	0.2051545070141877	-0.1745024720260981	-0.1608556210168759	0.09024313228550125	0.07894789967812701	0	0	0	0	0	0	0	0	0	0	0	0	0	0.1118777243308337	-0.07720346523748767	-0.00901925770655001	-0.2433255424514779	0.1722445257793284	-0.06837319331322225	-0.0461244682582286	25.63319169411024	25.68619240997199	-4.924253884340233	-17.81984322768172	-438.8202813794535	-66.0399645094116	-26.27119196919363	-3.226718021112475	-1.106978260899318	-0.8480150415057739	11.51354838576266	-0.07756067830016085	3.291232750136477	-3.668732705769782	10.86480656866754	10.86480656866623	2.507578048552966	-0.9074341704415637	3.624091688789735	0.9631880901056066	1.024527396817959e-08	6.167060763177881e-07	-1.139662139390291e-07	4.813385274336727e-08	3.532011184714255e-08	2.552336427993928e-07	7.848730785931463e-08
0.01	0.04774890551194006	0.1080819935456112	0.9028184905765831	0.1272518060811245	-0.3701232524742508	-0.2255086210271804	-0.2146843621083076	0.2056837747947912	0.2056837747947915	-0.1743788167284328	-0.1608887156353882	0.09042008295421031	0.07899593396618346	-0.03074494970344006	-0.01088498096048448	-0.008198448994343552	0.1114516879936651	-0.0005256127658080441	0.03413414472323258	-0.03719402463558544	0.1053105413977542	0.1053105413977468	0.02462648437667541	-0.006552298447186816	0.03518436108632196	0.009571973774240249	0.1093958868681829	-0.08637588530802295	-0.008365983337441388	-0.240342648768875	0.1651101321452637	-0.05811716288789235	-0.04408848498101625	23.89164202338292	21.29580158947043	-3.948875844600579	-16.9671953867889	-439.6378725163797	-74.99551032930879	-26.27111263543461	-2.987903005523368	-1.072799811791198	-0.802151065072126	10.8929011122342	-0.03693877822560661	3.449956542760073	-3.701654016902226	10.28271001935101	10.28271001935067	2.424588872912504	-0.5191669291232838	3.434760207674494	0.9488858901424011	2.76215983462517e-09	8.966140256400543e-07	-1.217052059823771e-07	8.878384207464106e-08	-1.629969754215811e-07	3.059784951510277e-07	1.197221199083553e-07
0.02	0.0472894779814713	0.1079197955190714	0.9026961155376892	0.1289122350497227	-0.3701306187453972	-0.2250006991215106	-0.2152350919235841	0.2072498544081732	0.2072498544081738	-0.1740120155388699	-0.1609853410878362	0.09094270761160579	0.0791386247657941	-0.06107068182941685	-0.0215116338476664	-0.01625254745574682	0.2201802602299643	-0.000926313631794009	0.06728633782020095	-0.07266471624914719	0.2073623665563698	0.2073623665563588	0.04862917838086361	-0.01270616678501286	0.0691347977374842	0.01893130231084954	0.1069140494055142	-0.09554830537854109	-0.007712708968290502	-0.2373597550862967	0.1579757385111948	-0.04786113246254557	-0.04205250170381668	22.19904474591312	16.9086806488326	-2.987547941398056	-16.16943017849361	-439.5850394348593	-83.76783984061363	-26.27058242207791	-3.142874505619843	-1.055312646238774	-0.8191449349177167	10.96892523428946	-0.05257829833574244	3.094842424883633	-3.324066101365045	10.21306332083978	10.21306332083925	2.38281997405553	-0.8277481485693994	3.37730680175782	0.9206590425794268	-4.720954298929248e-09	1.17652197496232e-06	-1.29444198025725e-07	1.294338314059149e-07	-3.613140626903047e-07	3.567233475026627e-07	1.60956931957396e-07
0.03	0.04652913829628783	0.1076524456118519	0.902493600436404	0.1316469972978561	-0.3701414961524352	-0.2241673759624084	-0.2161317792331051	0.2098215932503212	0.2098215932503256	-0.1734083853661308	-0.161142992101807	0.09179899175903911	0.07937385266091297	-0.09085519157746287	-0.03193111036593502	-0.02425071760758121	0.3262953532751176	-0.001248231367527911	0.09925611117797796	-0.1064210757573089	0.3065042505658503	0.3065042505658258	0.07194144391973908	-0.0187269923025331	0.1019262580177134	0.02806285558950197	0.103139796658283	-0.09018371923384562	-0.006799432125533971	-0.2327947273105931	0.1521718859793323	-0.04997716029912506	-0.03922699359778488	20.21337114906806	18.03431895721619	-3.005914354008791	-14.76675496532976	-439.4324071754424	-80.65959062341086	-26.26919787734068	-2.874919823456362	-1.031153518968304	-0.7902628403461736	10.3612787623998	-0.02201478253787855	3.229772175962953	-3.36367039088626	9.692545886806522	9.692545886804938	2.282304318840632	-0.4747414921472473	3.20073586695057	0.901519977841473	-9.682629240107383e-09	1.316249987781759e-06	-1.204466233188028e-07	1.510883202953889e-07	-4.914758760261244e-07	3.661577403516336e-07	1.818110743506262e-07
0.04	0.04547521739081006	0.1072817232665803	0.9022110816765935	0.1354286059609951	-0.3701555959910985	-0.2230180095927815	-0.2173584800407781	0.2133703099217267	0.2133703099217271	-0.1725762576430002	-0.1613579497187083	0.09297732455443306	0.079698819390285	-0.119786925887871	-0.04218612145806634	-0.03225327916079208	0.4295495432311373	-0.001570799957084124	0.1304949799252823	-0.1386674158792559	0.4027579324074979	0.4027579324074664	0.09432868846010445	-0.0241674873722076	0.1335445273297427	0.03687906916149025	0.09936554391104226	-0.08481913308913691	-0.005886155282816666	-0.2282296995349062	0.1463680334474624	-0.05209318813569192	-0.03640148549175169	18.27201582677661	19.16663330353208	-3.041837026953082	-13.40821117630517	-438.4768843227771	-77.37041782291757	-26.26613584787793	-2.972319418092261	-1.022419561011275	-0.820023215193013	10.39674461646271	-0.05270846910019953	2.948661502789109	-3.022062224122076	9.635422887273151	9.635422887273979	2.197815774353522	-0.7116820590002387	3.142668608117867	0.8575911012466135	-1.459231574432931e-08	1.453087692632067e-06	-1.111039647613596e-07	1.723511493819393e-07	-6.202324259818842e-07	3.747403711490032e-07	2.022449967509531e-07
0.05	0.04413542282242996	0.1068093256731604	0.9018482471944375	0.1402295633102318	-0.3701728121268363	-0.221561775384005	-0.2188994749659983	0.2178678144976804	0.2178678144976819	-0.1715246111100061	-0.1616261800566703	0.09446614816684683	0.08011059664820198	-0.1480532057150425	-0.0522585119770122	-0.04033109027999054	0.530171942612256	-0.001854665967443483	0.1605992937300305	-0.1692788772741453	0.4962416889427693	0.4962416889427946	0.1158568516872476	-0.0293769283899219	0.1640205905298668	0.04544493170585229	0.09562479663775234	-0.0831658667086712	-0.004900642974349051	-0.2245176231021154	0.1404947600142268	-0.0506737046185915	-0.03362633711355834	16.50113467042071	18.72933004422895	-2.822610005640923	-12.30287171469455	-437.7929956734774	-77.40220865100348	-26.26047772569714	-2.735948686523566	-0.9943813678475271	-0.8044060986600085	9.824495081928132	-0.01376140238850485	3.018492123878704	-3.042784313607734	9.129617346365755	9.129617346373829	2.108987671851152	-0.4103780962500477	2.970180753195484	0.8511503350188863	-1.578956129532504e-08	1.468928802986656e-06	-1.488922615256655e-07	1.811743507379409e-07	-6.814587011751942e-07	4.089185632803449e-07	2.110781149049571e-07
0.06	0.04251653217147779	0.106237257660449	0.9014040853934134	0.1460226461498776	-0.3701923740697536	-0.2198090628762691	-0.2207390037484556	0.2232851097009312	0.2232851097009276	-0.1702619487297518	-0.161943465399423	0.09625375352670858	0.08060704583236016	-0.1756061424019625	-0.06212020531637819	-0.04851874293439581	0.6279746413130477	-0.0020399613931872	0.1897906397172191	-0.1983741873264531	0.5867160578665009	0.5867160578665807	0.1365318579126533	-0.03397848833135516	0.1933008768194201	0.05381345440973188	0.09188404936445305	-0.08151260032819745	-0.003915130665914878	-0.2208055466693382	0.1346214865809843	-0.04925422110148393	-0.03085118873536535	14.77056000368261	18.29606521236917	-2.616702950824761	-11.23496613020386	-436.3874103224888	-77.27169778897249	-26.25096687147681	-2.829650790041952	-0.9802801250952627	-0.8419915222343759	9.832804480397343	-0.03299435217706541	2.766067939277193	-2.718831955605716	9.033545364965182	9.033545364965528	2.027184374006024	-0.5901058437440182	2.903513226003769	0.8181231331501377	-1.683049354302703e-08	1.479675319888794e-06	-1.886650195666765e-07	1.894737782947614e-07	-7.398415963785064e-07	4.441744632573275e-07	2.194227781433265e-07
0.07000000000000001	0.0406251043443308	0.1055676672321246	0.900877248632969	0.1527808570481789	-0.3702132988534962	-0.2177706086652886	-0.2228613820386365	0.2295933960476838	0.2295933960476846	-0.1687965652657377	-0.1623055710304361	0.09832865080269351	0.08118637623366472	-0.2025525775857218	-0.07175569141425371	-0.05688108342699685	0.7231905041860391	-0.002130257788410226	0.2177538573235182	-0.2258634005666546	0.6744562935182499	0.6744562935183223	0.1563854609847089	-0.03832944213023105	0.2214932817927312	0.06202435283979758	0.08800493658440355	-0.07891685976969055	-0.002890276389593887	-0.2175875432036243	0.1295293633051135	-0.04849439429645996	-0.02800762605324843	13.24319366518462	18.14888344978124	-2.496581373161271	-10.34774668089741	-435.1900058029975	-76.51099034642698	-26.2363206226261	-2.608092249471836	-0.9488165165442134	-0.8383751296387244	9.294429817772047	0.004978247418875682	2.789571460912435	-2.728255486815546	8.571480984672029	8.571480984670673	1.940771954382214	-0.3406737628048259	2.74935584214358	0.8181227087052859	-1.661876404423574e-08	1.341784111242912e-06	-2.353348499614962e-07	1.812851893186484e-07	-7.443055242191332e-07	4.55686362158168e-07	2.093537605069367e-07
0.08	0.0384680216919601	0.1048029952099395	0.9002657845042251	0.1604769171006146	-0.3702347214950679	-0.2154568977203241	-0.2252515103569376	0.2367645284148314	0.2367645284148353	-0.1671373810348903	-0.1627078029224076	0.100679922470241	0.08184692552142402	-0.2287371074466339	-0.08113652408852499	-0.0654442165943081	0.8155444721399139	-0.002139532959079378	0.2448419865140635	-0.2519241929503879	0.7592852619456875	0.7592852619457487	0.1752920112798435	-0.0420037405229233	0.2485757551319928	0.07005723170068461	0.08412582380434891	-0.07632111921117785	-0.00186542211327356	-0.214369539737919	0.1244372400292397	-0.04773456749143044	-0.02516406337113278	11.75132479867796	18.00662611413781	-2.389970508925019	-9.48595066386779	-433.349447322637	-75.59802496937998	-26.21499961899683	-2.67726972547253	-0.9293494403743784	-0.8821500571764154	9.260425496573989	-0.01679010726628311	2.591050256126431	-2.433147784312087	8.451291920102879	8.451291920102504	1.837773818621851	-0.4547747625072809	2.68152689919393	0.782519219314422	-1.632621765857391e-08	1.194303371916514e-06	-2.82449652766239e-07	1.720328573404108e-07	-7.452908090041028e-07	4.65666390021838e-07	1.980967634592721e-07
